<svg xmlns="http://www.w3.org/2000/svg" xmlns:xlink="http://www.w3.org/1999/xlink" width="500" zoomAndPan="magnify" viewBox="0 0 375 374.999991" height="500" preserveAspectRatio="xMidYMid meet" version="1.0"><defs><g/><clipPath id="c49660590e"><path d="M 109 29.597656 L 265 29.597656 L 265 46 L 109 46 Z M 109 29.597656 " clip-rule="nonzero"/></clipPath><clipPath id="4e94ec50bb"><path d="M 92.632812 47 L 149 47 L 149 116 L 92.632812 116 Z M 92.632812 47 " clip-rule="nonzero"/></clipPath><clipPath id="8ecf2bd60d"><path d="M 226 47 L 282.382812 47 L 282.382812 116 L 226 116 Z M 226 47 " clip-rule="nonzero"/></clipPath><clipPath id="06387ab9fc"><path d="M 92.632812 104 L 282.382812 104 L 282.382812 208 L 92.632812 208 Z M 92.632812 104 " clip-rule="nonzero"/></clipPath></defs><g clip-path="url(#c49660590e)"><path fill="#32620e" d="M 118.105469 45.609375 C 114.398438 45.609375 111.03125 43.035156 110.226562 39.46875 C 109.21875 35.589844 111.507812 31.386719 115.347656 30.085938 C 115.386719 30.074219 115.421875 30.0625 115.457031 30.054688 C 117.09375 29.597656 118.730469 29.613281 120.175781 29.632812 C 120.636719 29.636719 121.097656 29.640625 121.554688 29.632812 C 142.023438 29.652344 162.441406 29.648438 182.859375 29.640625 C 207.167969 29.636719 232.304688 29.628906 257.027344 29.671875 C 259.234375 29.605469 261.390625 30.566406 262.945312 32.316406 C 264.523438 34.082031 265.238281 36.363281 264.917969 38.578125 C 264.710938 40.574219 263.699219 42.40625 262.066406 43.738281 C 260.40625 45.089844 258.289062 45.757812 256.226562 45.574219 C 236.589844 45.578125 216.960938 45.578125 197.324219 45.578125 C 171.132812 45.574219 144.941406 45.574219 118.746094 45.582031 C 118.53125 45.597656 118.320312 45.609375 118.105469 45.609375 Z M 116.691406 34.21875 C 115.046875 34.808594 113.996094 36.746094 114.4375 38.398438 C 114.445312 38.429688 114.453125 38.460938 114.460938 38.492188 C 114.824219 40.152344 116.648438 41.417969 118.449219 41.246094 C 118.515625 41.242188 118.582031 41.234375 118.652344 41.234375 C 144.878906 41.226562 171.101562 41.230469 197.324219 41.230469 C 216.992188 41.230469 236.660156 41.234375 256.328125 41.226562 C 256.40625 41.226562 256.480469 41.230469 256.558594 41.242188 C 257.511719 41.34375 258.515625 41.027344 259.316406 40.371094 C 260.0625 39.765625 260.511719 38.960938 260.59375 38.105469 C 260.597656 38.0625 260.601562 38.023438 260.613281 37.984375 C 260.757812 37.046875 260.414062 36.007812 259.703125 35.207031 C 259 34.417969 258.058594 33.980469 257.140625 34.019531 C 257.113281 34.019531 257.089844 34.019531 257.054688 34.019531 C 232.324219 33.976562 207.175781 33.984375 182.855469 33.992188 C 162.4375 33.996094 142.019531 34 121.601562 33.976562 C 121.148438 33.988281 120.632812 33.984375 120.121094 33.976562 C 118.878906 33.957031 117.710938 33.945312 116.691406 34.21875 Z M 116.691406 34.21875 " fill-opacity="1" fill-rule="nonzero"/></g><g clip-path="url(#4e94ec50bb)"><path fill="#32620e" d="M 110.296875 115.058594 C 108.925781 115.058594 107.554688 114.960938 106.195312 114.757812 C 100.027344 113.636719 94.902344 108.859375 92.742188 102.28125 C 92.671875 102.0625 92.632812 101.832031 92.632812 101.605469 L 92.632812 97.390625 C 92.632812 97.070312 92.703125 96.75 92.839844 96.460938 C 96.617188 88.445312 100.257812 80.183594 103.78125 72.195312 C 107.246094 64.328125 110.832031 56.191406 114.558594 48.269531 C 114.914062 47.507812 115.679688 47.019531 116.519531 47.019531 C 123.109375 47.015625 129.699219 47.015625 136.292969 47.015625 L 146.183594 47.019531 C 146.835938 47.019531 147.457031 47.316406 147.867188 47.824219 C 148.28125 48.332031 148.441406 49 148.304688 49.640625 C 146.410156 58.570312 144.378906 67.621094 142.417969 76.375 C 140.683594 84.097656 138.894531 92.082031 137.203125 99.941406 C 137.191406 100.003906 137.175781 100.066406 137.15625 100.125 C 137.09375 100.324219 137.046875 100.535156 136.996094 100.75 C 136.761719 101.769531 136.402344 103.304688 134.957031 104.300781 C 133.636719 105.308594 132.269531 106.261719 130.949219 107.191406 C 130.035156 107.832031 129.125 108.46875 128.226562 109.125 C 122.945312 112.984375 116.589844 115.058594 110.296875 115.058594 Z M 110.296875 115.058594 " fill-opacity="1" fill-rule="nonzero"/></g><path fill="#32620e" d="M 161.703125 115.136719 C 158.371094 115.136719 155.050781 114.542969 151.992188 113.335938 C 148.632812 112.023438 146.230469 109.667969 143.90625 107.386719 C 142.417969 105.925781 141.011719 104.550781 139.417969 103.496094 C 138.679688 103.011719 138.3125 102.121094 138.484375 101.253906 C 140.507812 91.269531 142.789062 81.175781 144.992188 71.410156 C 146.660156 64.015625 148.390625 56.367188 149.988281 48.832031 C 150.199219 47.84375 151.0625 47.128906 152.074219 47.109375 C 159.632812 46.972656 167.316406 47 174.746094 47.027344 C 178.023438 47.035156 181.304688 47.046875 184.578125 47.042969 C 184.578125 47.042969 184.578125 47.042969 184.582031 47.042969 C 185.160156 47.042969 185.710938 47.273438 186.117188 47.683594 C 186.527344 48.089844 186.753906 48.644531 186.753906 49.222656 C 186.734375 55.4375 186.757812 61.761719 186.78125 67.878906 C 186.820312 79.015625 186.863281 90.527344 186.660156 101.859375 C 186.648438 102.667969 186.183594 103.402344 185.460938 103.765625 C 183.578125 104.707031 181.957031 106.152344 180.242188 107.675781 C 178.285156 109.417969 176.261719 111.21875 173.675781 112.425781 C 169.960938 114.226562 165.820312 115.136719 161.703125 115.136719 Z M 161.703125 115.136719 " fill-opacity="1" fill-rule="nonzero"/><path fill="#32620e" d="M 213.367188 115.136719 C 209.683594 115.136719 205.910156 114.402344 202.371094 112.929688 C 199.351562 111.738281 197.042969 109.6875 194.8125 107.707031 C 193.078125 106.167969 191.441406 104.714844 189.546875 103.730469 C 188.835938 103.363281 188.386719 102.636719 188.375 101.839844 C 188.171875 89.714844 188.195312 77.390625 188.222656 65.476562 C 188.234375 60.058594 188.246094 54.636719 188.234375 49.222656 C 188.234375 48.644531 188.464844 48.089844 188.871094 47.683594 C 189.277344 47.277344 189.828125 47.042969 190.40625 47.042969 C 190.40625 47.042969 190.410156 47.042969 190.410156 47.042969 C 193.816406 47.050781 197.21875 47.035156 200.625 47.027344 C 207.925781 47 215.472656 46.972656 222.910156 47.117188 C 223.921875 47.136719 224.78125 47.851562 224.992188 48.835938 C 226.632812 56.574219 228.398438 64.429688 230.101562 72.023438 C 232.246094 81.582031 234.460938 91.472656 236.472656 101.238281 C 236.652344 102.113281 236.277344 103.007812 235.53125 103.496094 C 233.964844 104.519531 232.597656 105.882812 231.148438 107.324219 C 229.078125 109.382812 226.941406 111.511719 224.011719 112.84375 C 220.789062 114.371094 217.125 115.136719 213.367188 115.136719 Z M 213.367188 115.136719 " fill-opacity="1" fill-rule="nonzero"/><g clip-path="url(#8ecf2bd60d)"><path fill="#32620e" d="M 264.871094 115.082031 C 262.992188 115.082031 260.976562 114.867188 258.835938 114.433594 C 251.21875 113.101562 244.984375 108.097656 239.488281 103.679688 L 239.210938 103.457031 C 238.832031 103.15625 238.570312 102.738281 238.457031 102.269531 C 235.902344 91.613281 233.507812 80.734375 231.191406 70.214844 C 229.710938 63.5 228.183594 56.554688 226.625 49.742188 C 226.480469 49.101562 226.632812 48.433594 227.035156 47.917969 C 227.441406 47.402344 228.058594 47.097656 228.710938 47.085938 C 235.832031 46.980469 243.0625 47 250.054688 47.019531 C 252.855469 47.027344 255.652344 47.035156 258.449219 47.035156 C 259.296875 47.035156 260.0625 47.523438 260.417969 48.289062 C 264.035156 56.03125 267.539062 63.972656 270.925781 71.65625 C 274.535156 79.839844 278.265625 88.304688 282.136719 96.519531 C 282.273438 96.808594 282.34375 97.125 282.34375 97.445312 L 282.34375 101.667969 C 282.34375 101.949219 282.289062 102.226562 282.183594 102.484375 C 280.8125 105.859375 278.710938 110.039062 274.613281 112.425781 C 271.945312 114.199219 268.683594 115.082031 264.871094 115.082031 Z M 264.871094 115.082031 " fill-opacity="1" fill-rule="nonzero"/></g><g clip-path="url(#06387ab9fc)"><path fill="#32620e" d="M 98.609375 207.808594 C 96.792969 207.808594 95.007812 207.113281 93.414062 205.777344 C 92.917969 205.367188 92.636719 204.757812 92.636719 204.113281 L 92.636719 201.214844 C 92.636719 200.539062 92.949219 199.90625 93.488281 199.496094 C 96.351562 197.292969 99.675781 197.46875 102.601562 197.625 C 103.152344 197.65625 103.683594 197.683594 104.199219 197.695312 C 104.234375 185.300781 104.226562 172.738281 104.222656 160.570312 C 104.214844 146.824219 104.207031 132.613281 104.261719 118.632812 C 104.261719 118.03125 104.511719 117.460938 104.949219 117.050781 C 105.386719 116.640625 105.972656 116.429688 106.574219 116.46875 C 114.101562 116.957031 121.332031 115.285156 126.925781 111.757812 C 126.941406 111.75 126.960938 111.738281 126.980469 111.726562 C 128.265625 110.964844 129.480469 110.046875 130.761719 109.082031 C 132.761719 107.570312 134.828125 106.007812 137.320312 104.960938 C 138.078125 104.644531 138.941406 104.777344 139.566406 105.308594 C 140.742188 106.304688 141.832031 107.386719 142.886719 108.429688 C 144.777344 110.300781 146.558594 112.066406 148.707031 113.273438 C 153.929688 116.441406 160.894531 117.339844 168.378906 115.847656 C 172.988281 114.929688 177.550781 112.347656 181.578125 108.390625 C 181.621094 108.347656 181.664062 108.308594 181.710938 108.269531 C 181.9375 108.082031 182.171875 107.871094 182.414062 107.648438 C 183.925781 106.285156 187.074219 103.445312 190.421875 105.929688 C 191.6875 106.886719 192.863281 107.921875 194.007812 108.917969 C 196.332031 110.953125 198.527344 112.875 201.175781 113.996094 C 209.109375 117.527344 218.382812 117.4375 225.410156 113.773438 C 228.003906 112.476562 230.074219 110.433594 232.273438 108.273438 C 233.273438 107.289062 234.308594 106.273438 235.402344 105.320312 C 236.027344 104.777344 236.902344 104.636719 237.667969 104.957031 C 240.007812 105.933594 241.945312 107.398438 243.820312 108.8125 C 244.394531 109.246094 244.964844 109.675781 245.550781 110.09375 C 251.78125 114.8125 259.882812 117.0625 268.410156 116.472656 C 269.007812 116.433594 269.597656 116.640625 270.039062 117.046875 C 270.480469 117.457031 270.730469 118.027344 270.734375 118.632812 C 270.792969 132.34375 270.78125 146.285156 270.773438 159.769531 C 270.765625 172.203125 270.753906 185.039062 270.800781 197.703125 C 271.335938 197.6875 271.894531 197.660156 272.46875 197.625 C 275.433594 197.457031 278.789062 197.265625 281.59375 199.65625 C 282.078125 200.070312 282.359375 200.671875 282.359375 201.308594 L 282.359375 204.207031 C 282.359375 204.984375 281.941406 205.703125 281.261719 206.089844 C 281.085938 206.191406 280.914062 206.296875 280.738281 206.402344 C 279.714844 207.027344 278.320312 207.875 276.535156 207.765625 L 273.152344 207.773438 C 265.964844 207.785156 258.53125 207.800781 251.226562 207.746094 C 250.046875 207.738281 249.089844 206.792969 249.070312 205.613281 C 249.011719 202.453125 249.027344 199.253906 249.050781 196.15625 C 249.074219 192.621094 249.097656 188.960938 249 185.390625 C 248.996094 185.308594 249 185.226562 249.007812 185.144531 C 249.019531 185.011719 248.996094 184.949219 248.910156 184.867188 C 248.730469 184.691406 248.324219 184.542969 247.910156 184.59375 C 247.820312 184.605469 247.722656 184.597656 247.640625 184.609375 C 239.710938 184.597656 231.777344 184.597656 223.847656 184.601562 C 215.09375 184.605469 206.335938 184.605469 197.582031 184.585938 C 197.554688 184.585938 197.523438 184.585938 197.492188 184.585938 C 196.359375 184.535156 195.78125 184.726562 195.601562 184.832031 C 195.386719 188.6875 195.429688 192.625 195.464844 196.433594 C 195.492188 199.441406 195.523438 202.554688 195.433594 205.636719 C 195.402344 206.792969 194.464844 207.71875 193.308594 207.746094 C 189.925781 207.816406 186.34375 207.816406 181.703125 207.746094 C 180.519531 207.730469 179.566406 206.765625 179.566406 205.578125 C 179.511719 187.441406 179.523438 169.011719 179.535156 151.1875 C 179.539062 143.71875 179.542969 136.257812 179.542969 128.792969 L 179.539062 128.636719 C 179.527344 128.152344 179.503906 127.183594 179.34375 126.84375 C 178.15625 126.609375 176.863281 126.628906 175.503906 126.652344 C 174.902344 126.664062 174.296875 126.675781 173.699219 126.664062 C 160.183594 126.695312 146.394531 126.683594 133.0625 126.667969 L 128.070312 126.664062 L 127.980469 126.667969 C 127.484375 126.675781 126.472656 126.691406 126.132812 126.871094 C 125.867188 128.324219 125.898438 129.882812 125.933594 131.519531 C 125.949219 132.316406 125.964844 133.140625 125.945312 133.96875 C 125.945312 140.886719 125.953125 147.851562 125.953125 154.816406 C 125.964844 171.453125 125.976562 188.65625 125.925781 205.578125 C 125.921875 206.765625 124.960938 207.734375 123.773438 207.746094 C 119.125 207.789062 114.410156 207.78125 109.851562 207.777344 C 106.304688 207.773438 102.761719 207.769531 99.214844 207.789062 C 99.007812 207.800781 98.808594 207.808594 98.609375 207.808594 Z M 96.980469 202.992188 C 97.523438 203.296875 98.175781 203.523438 98.886719 203.449219 C 98.953125 203.445312 99.023438 203.441406 99.089844 203.441406 C 102.675781 203.421875 106.261719 203.425781 109.84375 203.429688 C 113.691406 203.433594 117.648438 203.441406 121.574219 203.414062 C 121.617188 187.191406 121.609375 170.742188 121.601562 154.816406 C 121.59375 147.847656 121.59375 140.882812 121.59375 133.914062 C 121.609375 133.128906 121.59375 132.386719 121.578125 131.601562 C 121.539062 129.71875 121.5 127.765625 121.910156 125.769531 C 121.925781 125.703125 121.941406 125.632812 121.960938 125.566406 C 122.9375 122.410156 126.285156 122.347656 127.886719 122.316406 L 128.019531 122.316406 L 133.054688 122.320312 C 146.382812 122.332031 160.164062 122.347656 173.71875 122.316406 C 174.308594 122.324219 174.863281 122.316406 175.414062 122.304688 C 177.046875 122.28125 178.730469 122.25 180.476562 122.644531 C 180.535156 122.65625 180.589844 122.671875 180.644531 122.6875 C 183.757812 123.65625 183.832031 126.953125 183.867188 128.535156 L 183.875 128.734375 C 183.875 136.253906 183.871094 143.71875 183.863281 151.1875 C 183.855469 168.308594 183.847656 185.992188 183.890625 203.425781 C 186.597656 203.457031 188.9375 203.460938 191.121094 203.433594 C 191.152344 201.105469 191.128906 198.757812 191.105469 196.472656 C 191.066406 192.582031 191.027344 188.558594 191.246094 184.574219 C 191.316406 183.480469 191.988281 180.011719 197.621094 180.242188 C 206.355469 180.261719 215.09375 180.257812 223.828125 180.253906 C 231.722656 180.253906 239.617188 180.25 247.511719 180.265625 C 249.144531 180.109375 250.777344 180.652344 251.902344 181.734375 C 252.902344 182.695312 253.40625 183.984375 253.324219 185.371094 C 253.425781 188.984375 253.398438 192.644531 253.378906 196.183594 C 253.359375 198.558594 253.34375 200.992188 253.367188 203.414062 C 259.964844 203.449219 266.644531 203.441406 273.125 203.425781 L 276.582031 203.421875 C 276.644531 203.414062 276.699219 203.421875 276.761719 203.425781 C 277.085938 203.457031 277.519531 203.242188 277.992188 202.96875 L 277.992188 202.449219 C 276.585938 201.738281 274.757812 201.84375 272.695312 201.957031 C 271.273438 202.039062 269.800781 202.121094 268.332031 201.929688 C 267.253906 201.789062 266.449219 200.875 266.441406 199.785156 C 266.386719 186.445312 266.398438 172.878906 266.410156 159.761719 C 266.417969 147.023438 266.429688 133.871094 266.378906 120.902344 C 257.65625 121.03125 249.410156 118.476562 242.960938 113.589844 C 242.398438 113.1875 241.789062 112.730469 241.183594 112.273438 C 239.839844 111.257812 238.554688 110.289062 237.191406 109.546875 C 236.566406 110.128906 235.949219 110.742188 235.308594 111.371094 C 232.96875 113.671875 230.546875 116.054688 227.371094 117.640625 C 219.230469 121.882812 208.511719 122.019531 199.429688 117.976562 C 196.179688 116.597656 193.613281 114.355469 191.132812 112.183594 C 190 111.191406 188.925781 110.257812 187.800781 109.40625 C 187.441406 109.136719 186.855469 109.480469 185.3125 110.875 C 185.046875 111.113281 184.792969 111.34375 184.546875 111.550781 C 179.929688 116.066406 174.632812 119.027344 169.21875 120.109375 C 160.660156 121.816406 152.59375 120.722656 146.5 117.027344 C 143.90625 115.566406 141.824219 113.507812 139.816406 111.515625 C 139.125 110.832031 138.460938 110.171875 137.78125 109.542969 C 136.265625 110.355469 134.851562 111.425781 133.367188 112.546875 C 132.050781 113.542969 130.691406 114.570312 129.203125 115.453125 C 123.335938 119.140625 116.253906 120.996094 108.585938 120.894531 C 108.539062 134.140625 108.546875 147.5625 108.554688 160.5625 C 108.5625 173.421875 108.566406 186.71875 108.527344 199.796875 C 108.523438 200.898438 107.695312 201.824219 106.601562 201.949219 C 105.171875 202.109375 103.746094 202.035156 102.363281 201.964844 C 100.289062 201.855469 98.449219 201.757812 96.972656 202.433594 L 96.972656 202.992188 Z M 253.90625 178.839844 C 253.703125 178.839844 253.503906 178.828125 253.300781 178.804688 C 245.050781 178.804688 236.800781 178.804688 228.546875 178.804688 C 216.09375 178.808594 203.640625 178.8125 191.191406 178.796875 C 189.570312 178.964844 187.9375 178.425781 186.800781 177.34375 C 185.78125 176.371094 185.269531 175.082031 185.355469 173.6875 C 185.304688 165.636719 185.316406 157.457031 185.324219 149.546875 C 185.328125 142.75 185.335938 135.71875 185.304688 128.808594 C 185.269531 127.632812 185.160156 123.886719 188.425781 122.703125 C 188.507812 122.675781 188.589844 122.648438 188.675781 122.628906 C 190.347656 122.242188 191.957031 122.277344 193.511719 122.3125 C 194.167969 122.324219 194.789062 122.339844 195.390625 122.324219 L 203.808594 122.324219 C 220.101562 122.332031 236.398438 122.339844 252.695312 122.316406 C 252.730469 122.316406 252.777344 122.316406 252.816406 122.316406 C 253 122.328125 253.1875 122.332031 253.378906 122.332031 C 254.558594 122.359375 256.34375 122.394531 257.710938 123.773438 C 259.097656 125.125 259.140625 126.90625 259.167969 128.089844 C 259.171875 128.285156 259.175781 128.480469 259.1875 128.667969 C 259.1875 128.71875 259.191406 128.765625 259.1875 128.808594 C 259.160156 135.722656 259.167969 142.753906 259.171875 149.546875 C 259.179688 157.460938 259.1875 165.640625 259.140625 173.691406 C 259.222656 175.09375 258.699219 176.398438 257.660156 177.375 C 256.660156 178.316406 255.296875 178.839844 253.90625 178.839844 Z M 243.914062 174.460938 C 247.089844 174.460938 250.261719 174.460938 253.433594 174.460938 C 253.535156 174.460938 253.636719 174.472656 253.738281 174.484375 C 254.070312 174.53125 254.46875 174.417969 254.683594 174.210938 C 254.800781 174.097656 254.808594 174.019531 254.800781 173.929688 C 254.792969 173.871094 254.792969 173.808594 254.792969 173.746094 C 254.847656 165.683594 254.839844 157.484375 254.828125 149.554688 C 254.824219 142.773438 254.816406 135.761719 254.847656 128.859375 C 254.835938 128.640625 254.828125 128.414062 254.824219 128.1875 C 254.816406 127.8125 254.800781 127.039062 254.683594 126.890625 C 254.660156 126.875 254.640625 126.851562 254.621094 126.828125 C 254.496094 126.703125 253.683594 126.683594 253.289062 126.675781 C 253.070312 126.671875 252.855469 126.667969 252.640625 126.65625 C 236.363281 126.683594 220.085938 126.675781 203.804688 126.667969 L 195.457031 126.667969 C 194.804688 126.6875 194.097656 126.671875 193.414062 126.65625 C 192.148438 126.625 190.949219 126.601562 189.863281 126.820312 C 189.800781 126.902344 189.609375 127.289062 189.648438 128.738281 C 189.679688 135.714844 189.675781 142.75 189.664062 149.554688 C 189.65625 157.484375 189.648438 165.683594 189.703125 173.746094 C 189.703125 173.808594 189.699219 173.875 189.691406 173.9375 C 189.683594 174.039062 189.695312 174.101562 189.796875 174.195312 C 189.984375 174.371094 190.382812 174.527344 190.785156 174.472656 C 190.882812 174.457031 190.972656 174.425781 191.070312 174.453125 C 203.558594 174.464844 216.054688 174.460938 228.546875 174.460938 C 233.667969 174.460938 238.792969 174.460938 243.914062 174.460938 Z M 243.914062 174.460938 " fill-opacity="1" fill-rule="nonzero"/></g><path fill="#32620e" d="M 154.480469 207.773438 C 146.851562 207.773438 138.644531 207.769531 129.582031 207.757812 C 128.386719 207.753906 127.417969 206.785156 127.414062 205.585938 C 127.375 182.5625 127.375 157.941406 127.414062 130.3125 C 127.417969 129.117188 128.382812 128.144531 129.582031 128.144531 C 144.949219 128.097656 160.535156 128.097656 175.898438 128.144531 C 177.09375 128.144531 178.0625 129.117188 178.0625 130.316406 C 178.089844 159.660156 178.089844 183.578125 178.0625 205.585938 C 178.0625 206.785156 177.09375 207.757812 175.894531 207.757812 C 169.15625 207.769531 162.109375 207.773438 154.480469 207.773438 Z M 131.753906 203.414062 C 147.929688 203.433594 161.382812 203.433594 173.722656 203.414062 C 173.742188 182.550781 173.742188 159.886719 173.722656 132.476562 C 159.789062 132.441406 145.691406 132.441406 131.753906 132.476562 C 131.71875 158.367188 131.71875 181.625 131.753906 203.414062 Z M 131.753906 203.414062 " fill-opacity="1" fill-rule="nonzero"/><path fill="#32620e" d="M 223.8125 173.019531 C 213.410156 173.019531 203.183594 173.011719 193.304688 173 C 192.109375 172.996094 191.140625 172.03125 191.136719 170.832031 C 191.09375 156.980469 191.109375 143.214844 191.128906 130.304688 C 191.132812 129.105469 192.101562 128.136719 193.296875 128.132812 C 215.949219 128.109375 234.34375 128.109375 251.195312 128.132812 C 252.390625 128.136719 253.359375 129.105469 253.363281 130.300781 C 253.398438 143.746094 253.398438 157.378906 253.363281 170.824219 C 253.359375 172.023438 252.390625 172.988281 251.199219 172.992188 C 242.011719 173.011719 232.847656 173.019531 223.8125 173.019531 Z M 223.8125 173.019531 " fill-opacity="1" fill-rule="nonzero"/><path fill="#32620e" d="M 221.203125 207.777344 C 213.523438 207.777344 206.1875 207.765625 199.09375 207.746094 C 197.902344 207.746094 196.933594 206.785156 196.925781 205.59375 C 196.882812 199.828125 196.882812 193.988281 196.925781 188.226562 C 196.933594 187.035156 197.902344 186.074219 199.09375 186.070312 C 216.066406 186.027344 231.210938 186.027344 245.402344 186.070312 C 246.589844 186.074219 247.558594 187.03125 247.570312 188.21875 C 247.625 194.015625 247.597656 199.898438 247.570312 205.585938 C 247.5625 206.78125 246.597656 207.746094 245.402344 207.746094 C 236.917969 207.769531 228.886719 207.777344 221.203125 207.777344 Z M 201.257812 203.410156 C 214.210938 203.441406 227.988281 203.441406 243.234375 203.410156 C 243.257812 199.121094 243.273438 194.746094 243.246094 190.40625 C 230.289062 190.375 216.507812 190.375 201.257812 190.40625 C 201.230469 194.730469 201.230469 199.089844 201.257812 203.410156 Z M 201.257812 203.410156 " fill-opacity="1" fill-rule="nonzero"/><g fill="#32620e" fill-opacity="1"><g transform="translate(0.0233501, 273.891101)"><g><path d="M 22.046875 -36.25 L 22.109375 -31.390625 L 22.109375 0 C 20.617188 0.257812 18.84375 0.390625 16.78125 0.390625 C 14.71875 0.390625 12.984375 0.257812 11.578125 0 L 11.578125 -36.25 L 7.375 -36.1875 L 0.59375 -36.1875 C 0.332031 -37.457031 0.203125 -38.914062 0.203125 -40.5625 C 0.203125 -42.207031 0.332031 -43.664062 0.59375 -44.9375 L 33.15625 -44.9375 C 33.507812 -43.800781 33.6875 -42.421875 33.6875 -40.796875 C 33.6875 -39.171875 33.25 -37.992188 32.375 -37.265625 C 31.5 -36.546875 30.09375 -36.1875 28.15625 -36.1875 L 26.25 -36.1875 L 22.109375 -36.25 Z M 22.046875 -36.25 "/></g></g></g><g fill="#32620e" fill-opacity="1"><g transform="translate(33.575069, 273.891101)"><g><path d="M 14.734375 -12.234375 C 15.921875 -8.816406 18.3125 -7.109375 21.90625 -7.109375 C 23.707031 -7.109375 25.164062 -7.554688 26.28125 -8.453125 C 27.40625 -9.347656 28.285156 -10.488281 28.921875 -11.875 C 29.554688 -13.257812 29.984375 -14.804688 30.203125 -16.515625 C 30.421875 -18.222656 30.53125 -19.910156 30.53125 -21.578125 C 30.53125 -23.117188 30.472656 -24.832031 30.359375 -26.71875 C 30.253906 -28.601562 29.9375 -30.367188 29.40625 -32.015625 C 28.882812 -33.660156 28.050781 -35.039062 26.90625 -36.15625 C 25.769531 -37.269531 24.101562 -37.828125 21.90625 -37.828125 C 19.800781 -37.828125 18.1875 -37.289062 17.0625 -36.21875 C 15.945312 -35.144531 15.113281 -33.816406 14.5625 -32.234375 C 14.019531 -30.660156 13.679688 -28.984375 13.546875 -27.203125 C 13.421875 -25.429688 13.359375 -23.863281 13.359375 -22.5 C 13.359375 -20.476562 13.457031 -18.675781 13.65625 -17.09375 C 13.851562 -15.519531 14.210938 -13.898438 14.734375 -12.234375 Z M 9.40625 -3.15625 C 4.71875 -7.0625 2.375 -13.488281 2.375 -22.4375 C 2.375 -26.300781 2.820312 -29.691406 3.71875 -32.609375 C 4.613281 -35.523438 5.90625 -37.96875 7.59375 -39.9375 C 9.28125 -41.914062 11.332031 -43.40625 13.75 -44.40625 C 16.164062 -45.414062 18.882812 -45.921875 21.90625 -45.921875 C 24.9375 -45.921875 27.664062 -45.414062 30.09375 -44.40625 C 32.53125 -43.40625 34.59375 -41.90625 36.28125 -39.90625 C 37.96875 -37.90625 39.257812 -35.445312 40.15625 -32.53125 C 41.0625 -29.613281 41.515625 -26.25 41.515625 -22.4375 C 41.515625 -18.625 41.0625 -15.257812 40.15625 -12.34375 C 39.257812 -9.425781 37.96875 -6.976562 36.28125 -5 C 34.59375 -3.03125 32.53125 -1.539062 30.09375 -0.53125 C 27.664062 0.476562 24.9375 0.984375 21.90625 0.984375 C 16.90625 0.984375 12.738281 -0.394531 9.40625 -3.15625 Z M 9.40625 -3.15625 "/></g></g></g><g fill="#32620e" fill-opacity="1"><g transform="translate(77.455448, 273.891101)"><g><path d="M 40.40625 -2.5625 C 38.90625 -0.457031 36.578125 0.59375 33.421875 0.59375 C 31.628906 0.59375 30.28125 0.132812 29.375 -0.78125 C 28.476562 -1.707031 27.703125 -3.269531 27.046875 -5.46875 L 24.546875 -13.15625 C 23.890625 -15.21875 23.097656 -16.6875 22.171875 -17.5625 C 21.253906 -18.445312 20.003906 -18.890625 18.421875 -18.890625 C 17.898438 -18.890625 16.9375 -18.84375 15.53125 -18.75 L 15.53125 0 C 14.164062 0.257812 12.410156 0.390625 10.265625 0.390625 C 8.117188 0.390625 6.363281 0.257812 5 0 L 5 -44.9375 C 6.363281 -45.195312 8.117188 -45.328125 10.265625 -45.328125 C 12.410156 -45.328125 14.164062 -45.195312 15.53125 -44.9375 L 15.53125 -27.5625 L 17.234375 -27.640625 C 18.023438 -27.640625 18.59375 -27.78125 18.9375 -28.0625 C 19.289062 -28.34375 19.710938 -28.945312 20.203125 -29.875 L 26.453125 -41.65625 C 27.109375 -43.007812 27.804688 -43.957031 28.546875 -44.5 C 29.296875 -45.050781 30.460938 -45.328125 32.046875 -45.328125 C 33.796875 -45.328125 35.832031 -45.21875 38.15625 -45 L 38.75 -44.28125 L 30.734375 -29.140625 C 29.722656 -27.128906 28.492188 -25.53125 27.046875 -24.34375 C 29.109375 -23.90625 30.65625 -23.070312 31.6875 -21.84375 C 32.71875 -20.613281 33.582031 -18.96875 34.28125 -16.90625 L 36.984375 -8.75 C 37.328125 -7.738281 37.585938 -6.992188 37.765625 -6.515625 C 37.941406 -6.035156 38.378906 -5.222656 39.078125 -4.078125 C 39.390625 -3.640625 39.832031 -3.132812 40.40625 -2.5625 Z M 40.40625 -2.5625 "/></g></g></g><g fill="#32620e" fill-opacity="1"><g transform="translate(118.30959, 273.891101)"><g><path d="M 14.734375 -12.234375 C 15.921875 -8.816406 18.3125 -7.109375 21.90625 -7.109375 C 23.707031 -7.109375 25.164062 -7.554688 26.28125 -8.453125 C 27.40625 -9.347656 28.285156 -10.488281 28.921875 -11.875 C 29.554688 -13.257812 29.984375 -14.804688 30.203125 -16.515625 C 30.421875 -18.222656 30.53125 -19.910156 30.53125 -21.578125 C 30.53125 -23.117188 30.472656 -24.832031 30.359375 -26.71875 C 30.253906 -28.601562 29.9375 -30.367188 29.40625 -32.015625 C 28.882812 -33.660156 28.050781 -35.039062 26.90625 -36.15625 C 25.769531 -37.269531 24.101562 -37.828125 21.90625 -37.828125 C 19.800781 -37.828125 18.1875 -37.289062 17.0625 -36.21875 C 15.945312 -35.144531 15.113281 -33.816406 14.5625 -32.234375 C 14.019531 -30.660156 13.679688 -28.984375 13.546875 -27.203125 C 13.421875 -25.429688 13.359375 -23.863281 13.359375 -22.5 C 13.359375 -20.476562 13.457031 -18.675781 13.65625 -17.09375 C 13.851562 -15.519531 14.210938 -13.898438 14.734375 -12.234375 Z M 9.40625 -3.15625 C 4.71875 -7.0625 2.375 -13.488281 2.375 -22.4375 C 2.375 -26.300781 2.820312 -29.691406 3.71875 -32.609375 C 4.613281 -35.523438 5.90625 -37.96875 7.59375 -39.9375 C 9.28125 -41.914062 11.332031 -43.40625 13.75 -44.40625 C 16.164062 -45.414062 18.882812 -45.921875 21.90625 -45.921875 C 24.9375 -45.921875 27.664062 -45.414062 30.09375 -44.40625 C 32.53125 -43.40625 34.59375 -41.90625 36.28125 -39.90625 C 37.96875 -37.90625 39.257812 -35.445312 40.15625 -32.53125 C 41.0625 -29.613281 41.515625 -26.25 41.515625 -22.4375 C 41.515625 -18.625 41.0625 -15.257812 40.15625 -12.34375 C 39.257812 -9.425781 37.96875 -6.976562 36.28125 -5 C 34.59375 -3.03125 32.53125 -1.539062 30.09375 -0.53125 C 27.664062 0.476562 24.9375 0.984375 21.90625 0.984375 C 16.90625 0.984375 12.738281 -0.394531 9.40625 -3.15625 Z M 9.40625 -3.15625 "/></g></g></g><g fill="#32620e" fill-opacity="1"><g transform="translate(162.189969, 273.891101)"><g><path d="M 22.046875 -36.25 L 22.109375 -31.390625 L 22.109375 0 C 20.617188 0.257812 18.84375 0.390625 16.78125 0.390625 C 14.71875 0.390625 12.984375 0.257812 11.578125 0 L 11.578125 -36.25 L 7.375 -36.1875 L 0.59375 -36.1875 C 0.332031 -37.457031 0.203125 -38.914062 0.203125 -40.5625 C 0.203125 -42.207031 0.332031 -43.664062 0.59375 -44.9375 L 33.15625 -44.9375 C 33.507812 -43.800781 33.6875 -42.421875 33.6875 -40.796875 C 33.6875 -39.171875 33.25 -37.992188 32.375 -37.265625 C 31.5 -36.546875 30.09375 -36.1875 28.15625 -36.1875 L 26.25 -36.1875 L 22.109375 -36.25 Z M 22.046875 -36.25 "/></g></g></g><g fill="#32620e" fill-opacity="1"><g transform="translate(195.741688, 273.891101)"><g><path d="M 15.921875 -9.40625 C 14.734375 -9.40625 13.859375 -9.425781 13.296875 -9.46875 L 10.46875 0.0625 C 9.40625 0.320312 7.929688 0.453125 6.046875 0.453125 C 3.941406 0.453125 2.234375 0.210938 0.921875 -0.265625 L 0.59375 -0.796875 L 15.0625 -44.9375 C 16.78125 -45.195312 18.78125 -45.328125 21.0625 -45.328125 C 23.644531 -45.328125 25.703125 -45.175781 27.234375 -44.875 L 41.453125 -0.65625 C 39.921875 0.175781 38.1875 0.59375 36.25 0.59375 C 33.96875 0.59375 32.363281 0.195312 31.4375 -0.59375 C 30.519531 -1.382812 29.734375 -2.894531 29.078125 -5.125 L 27.828125 -9.46875 C 27.265625 -9.425781 26.410156 -9.40625 25.265625 -9.40625 Z M 15.71875 -17.703125 L 18.359375 -17.765625 L 23.15625 -17.765625 C 23.375 -17.765625 23.757812 -17.753906 24.3125 -17.734375 C 24.863281 -17.710938 25.269531 -17.703125 25.53125 -17.703125 L 24.40625 -21.78125 C 23.351562 -25.46875 22.148438 -29.984375 20.796875 -35.328125 L 20.390625 -35.328125 C 20.046875 -33.441406 18.992188 -29.253906 17.234375 -22.765625 Z M 15.71875 -17.703125 "/></g></g></g><g fill="#32620e" fill-opacity="1"><g transform="translate(237.714228, 273.891101)"><g><path d="M 3.625 -0.125 L 7.109375 -44.875 C 9.035156 -45.226562 11.3125 -45.40625 13.9375 -45.40625 C 16.570312 -45.40625 18.878906 -45.226562 20.859375 -44.875 L 24.734375 -28.75 C 26.273438 -21.46875 27.085938 -17.5 27.171875 -16.84375 L 27.640625 -16.84375 C 27.804688 -17.9375 28.613281 -21.90625 30.0625 -28.75 L 34.015625 -44.875 C 35.941406 -45.226562 38.222656 -45.40625 40.859375 -45.40625 C 43.492188 -45.40625 45.796875 -45.226562 47.765625 -44.875 L 51.25 -0.125 C 49.894531 0.21875 48.21875 0.390625 46.21875 0.390625 C 44.226562 0.390625 42.597656 0.28125 41.328125 0.0625 L 40.265625 -18.21875 C 39.960938 -25.5 39.785156 -30.566406 39.734375 -33.421875 L 39.34375 -33.421875 L 32.828125 -6.640625 C 31.253906 -6.378906 29.445312 -6.25 27.40625 -6.25 C 25.363281 -6.25 23.550781 -6.378906 21.96875 -6.640625 L 15.53125 -33.421875 L 15.0625 -33.421875 C 15.0625 -29.515625 14.890625 -24.445312 14.546875 -18.21875 L 13.546875 0.0625 C 12.273438 0.28125 10.640625 0.390625 8.640625 0.390625 C 6.648438 0.390625 4.976562 0.21875 3.625 -0.125 Z M 3.625 -0.125 "/></g></g></g><g fill="#32620e" fill-opacity="1"><g transform="translate(292.515368, 273.891101)"><g><path d="M 5.46875 -45.078125 C 9.019531 -45.160156 12.054688 -45.222656 14.578125 -45.265625 C 17.097656 -45.304688 19.125 -45.328125 20.65625 -45.328125 C 25.4375 -45.328125 29.195312 -44.328125 31.9375 -42.328125 C 34.6875 -40.335938 36.0625 -37.347656 36.0625 -33.359375 C 36.0625 -31.429688 35.507812 -29.632812 34.40625 -27.96875 C 33.3125 -26.300781 31.910156 -25.09375 30.203125 -24.34375 C 31.296875 -23.988281 32.335938 -23.425781 33.328125 -22.65625 C 34.316406 -21.894531 35.160156 -21 35.859375 -19.96875 C 36.554688 -18.9375 37.113281 -17.816406 37.53125 -16.609375 C 37.945312 -15.398438 38.15625 -14.160156 38.15625 -12.890625 C 38.15625 -8.378906 36.71875 -5.035156 33.84375 -2.859375 C 30.976562 -0.691406 26.910156 0.390625 21.640625 0.390625 C 20.023438 0.390625 17.878906 0.367188 15.203125 0.328125 C 12.523438 0.285156 9.28125 0.21875 5.46875 0.125 L 5 -0.328125 L 5 -44.609375 Z M 20.859375 -19.8125 L 15.390625 -19.8125 L 15.390625 -6.96875 C 16.535156 -7.019531 17.820312 -7.019531 19.25 -6.96875 C 20.675781 -6.925781 22 -7.035156 23.21875 -7.296875 C 24.445312 -7.566406 25.476562 -8.203125 26.3125 -9.203125 C 27.144531 -10.210938 27.5625 -11.617188 27.5625 -13.421875 C 27.5625 -15.128906 27.023438 -16.617188 25.953125 -17.890625 C 24.878906 -19.171875 23.179688 -19.8125 20.859375 -19.8125 Z M 15.390625 -37.90625 L 15.390625 -27.3125 L 20.0625 -27.3125 C 22.164062 -27.3125 23.644531 -27.820312 24.5 -28.84375 C 25.363281 -29.875 25.796875 -31.140625 25.796875 -32.640625 C 25.796875 -34.128906 25.351562 -35.363281 24.46875 -36.34375 C 23.59375 -37.332031 22.125 -37.828125 20.0625 -37.828125 C 19.0625 -37.828125 18.175781 -37.828125 17.40625 -37.828125 C 16.632812 -37.828125 15.960938 -37.851562 15.390625 -37.90625 Z M 15.390625 -37.90625 "/></g></g></g><g fill="#32620e" fill-opacity="1"><g transform="translate(332.974777, 273.891101)"><g><path d="M 15.921875 -9.40625 C 14.734375 -9.40625 13.859375 -9.425781 13.296875 -9.46875 L 10.46875 0.0625 C 9.40625 0.320312 7.929688 0.453125 6.046875 0.453125 C 3.941406 0.453125 2.234375 0.210938 0.921875 -0.265625 L 0.59375 -0.796875 L 15.0625 -44.9375 C 16.78125 -45.195312 18.78125 -45.328125 21.0625 -45.328125 C 23.644531 -45.328125 25.703125 -45.175781 27.234375 -44.875 L 41.453125 -0.65625 C 39.921875 0.175781 38.1875 0.59375 36.25 0.59375 C 33.96875 0.59375 32.363281 0.195312 31.4375 -0.59375 C 30.519531 -1.382812 29.734375 -2.894531 29.078125 -5.125 L 27.828125 -9.46875 C 27.265625 -9.425781 26.410156 -9.40625 25.265625 -9.40625 Z M 15.71875 -17.703125 L 18.359375 -17.765625 L 23.15625 -17.765625 C 23.375 -17.765625 23.757812 -17.753906 24.3125 -17.734375 C 24.863281 -17.710938 25.269531 -17.703125 25.53125 -17.703125 L 24.40625 -21.78125 C 23.351562 -25.46875 22.148438 -29.984375 20.796875 -35.328125 L 20.390625 -35.328125 C 20.046875 -33.441406 18.992188 -29.253906 17.234375 -22.765625 Z M 15.71875 -17.703125 "/></g></g></g><g fill="#32620e" fill-opacity="1"><g transform="translate(100.112019, 307.825571)"><g><path d="M 9.46875 0.421875 C 7.613281 0.421875 6.082031 0.0507812 4.875 -0.6875 C 3.675781 -1.4375 2.785156 -2.457031 2.203125 -3.75 C 1.628906 -5.039062 1.34375 -6.507812 1.34375 -8.15625 C 1.34375 -9.789062 1.632812 -11.25 2.21875 -12.53125 C 2.8125 -13.820312 3.710938 -14.84375 4.921875 -15.59375 C 6.128906 -16.34375 7.664062 -16.71875 9.53125 -16.71875 C 12.039062 -16.71875 13.898438 -16.140625 15.109375 -14.984375 C 16.316406 -13.828125 17.019531 -12.234375 17.21875 -10.203125 L 15.15625 -10.203125 C 14.988281 -11.804688 14.441406 -13.007812 13.515625 -13.8125 C 12.585938 -14.625 11.238281 -15.03125 9.46875 -15.03125 C 7.445312 -15.03125 5.941406 -14.453125 4.953125 -13.296875 C 3.972656 -12.148438 3.484375 -10.4375 3.484375 -8.15625 C 3.484375 -5.882812 3.96875 -4.164062 4.9375 -3 C 5.90625 -1.84375 7.398438 -1.265625 9.421875 -1.265625 C 11.265625 -1.265625 12.660156 -1.722656 13.609375 -2.640625 C 14.554688 -3.554688 15.085938 -4.835938 15.203125 -6.484375 L 17.28125 -6.484375 C 17.195312 -5.117188 16.867188 -3.914062 16.296875 -2.875 C 15.734375 -1.84375 14.890625 -1.035156 13.765625 -0.453125 C 12.648438 0.128906 11.21875 0.421875 9.46875 0.421875 Z M 9.46875 0.421875 "/></g></g></g><g fill="#32620e" fill-opacity="1"><g transform="translate(121.265701, 307.825571)"><g><path d="M 9.453125 0.421875 C 7.578125 0.421875 6.035156 0.0507812 4.828125 -0.6875 C 3.628906 -1.4375 2.75 -2.457031 2.1875 -3.75 C 1.625 -5.050781 1.34375 -6.519531 1.34375 -8.15625 C 1.34375 -9.769531 1.625 -11.222656 2.1875 -12.515625 C 2.75 -13.816406 3.628906 -14.84375 4.828125 -15.59375 C 6.035156 -16.34375 7.578125 -16.71875 9.453125 -16.71875 C 11.347656 -16.71875 12.890625 -16.335938 14.078125 -15.578125 C 15.265625 -14.828125 16.144531 -13.804688 16.71875 -12.515625 C 17.289062 -11.222656 17.578125 -9.769531 17.578125 -8.15625 C 17.578125 -6.519531 17.289062 -5.054688 16.71875 -3.765625 C 16.144531 -2.484375 15.265625 -1.460938 14.078125 -0.703125 C 12.890625 0.046875 11.347656 0.421875 9.453125 0.421875 Z M 3.484375 -8.15625 C 3.484375 -5.863281 3.957031 -4.140625 4.90625 -2.984375 C 5.863281 -1.835938 7.378906 -1.265625 9.453125 -1.265625 C 11.535156 -1.265625 13.054688 -1.835938 14.015625 -2.984375 C 14.972656 -4.140625 15.453125 -5.863281 15.453125 -8.15625 C 15.453125 -10.4375 14.972656 -12.148438 14.015625 -13.296875 C 13.054688 -14.453125 11.535156 -15.03125 9.453125 -15.03125 C 7.378906 -15.03125 5.863281 -14.453125 4.90625 -13.296875 C 3.957031 -12.148438 3.484375 -10.4375 3.484375 -8.15625 Z M 3.484375 -8.15625 "/></g></g></g><g fill="#32620e" fill-opacity="1"><g transform="translate(142.835577, 307.825571)"><g><path d="M 13.515625 -16.28125 L 15.515625 -16.28125 L 15.515625 0 L 12.125 0 L 4.71875 -12.78125 C 4.3125 -13.5625 3.972656 -14.269531 3.703125 -14.90625 L 3.703125 0 L 1.671875 0 L 1.671875 -16.28125 L 5.09375 -16.28125 L 12.484375 -3.484375 C 12.648438 -3.203125 12.820312 -2.875 13 -2.5 C 13.175781 -2.125 13.347656 -1.75 13.515625 -1.375 Z M 13.515625 -16.28125 "/></g></g></g><g fill="#32620e" fill-opacity="1"><g transform="translate(162.691722, 307.825571)"><g><path d="M 13.515625 -16.28125 L 15.515625 -16.28125 L 15.515625 0 L 12.125 0 L 4.71875 -12.78125 C 4.3125 -13.5625 3.972656 -14.269531 3.703125 -14.90625 L 3.703125 0 L 1.671875 0 L 1.671875 -16.28125 L 5.09375 -16.28125 L 12.484375 -3.484375 C 12.648438 -3.203125 12.820312 -2.875 13 -2.5 C 13.175781 -2.125 13.347656 -1.75 13.515625 -1.375 Z M 13.515625 -16.28125 "/></g></g></g><g fill="#32620e" fill-opacity="1"><g transform="translate(182.547866, 307.825571)"><g><path d="M 3.703125 -1.640625 L 13.78125 -1.640625 L 13.78125 0 L 1.671875 0 L 1.671875 -16.28125 L 13.71875 -16.28125 L 13.71875 -14.640625 L 3.703125 -14.640625 L 3.703125 -9.1875 L 12.984375 -9.1875 L 12.984375 -7.5625 L 3.703125 -7.5625 Z M 3.703125 -1.640625 "/></g></g></g><g fill="#32620e" fill-opacity="1"><g transform="translate(200.518936, 307.825571)"><g><path d="M 9.46875 0.421875 C 7.613281 0.421875 6.082031 0.0507812 4.875 -0.6875 C 3.675781 -1.4375 2.785156 -2.457031 2.203125 -3.75 C 1.628906 -5.039062 1.34375 -6.507812 1.34375 -8.15625 C 1.34375 -9.789062 1.632812 -11.25 2.21875 -12.53125 C 2.8125 -13.820312 3.710938 -14.84375 4.921875 -15.59375 C 6.128906 -16.34375 7.664062 -16.71875 9.53125 -16.71875 C 12.039062 -16.71875 13.898438 -16.140625 15.109375 -14.984375 C 16.316406 -13.828125 17.019531 -12.234375 17.21875 -10.203125 L 15.15625 -10.203125 C 14.988281 -11.804688 14.441406 -13.007812 13.515625 -13.8125 C 12.585938 -14.625 11.238281 -15.03125 9.46875 -15.03125 C 7.445312 -15.03125 5.941406 -14.453125 4.953125 -13.296875 C 3.972656 -12.148438 3.484375 -10.4375 3.484375 -8.15625 C 3.484375 -5.882812 3.96875 -4.164062 4.9375 -3 C 5.90625 -1.84375 7.398438 -1.265625 9.421875 -1.265625 C 11.265625 -1.265625 12.660156 -1.722656 13.609375 -2.640625 C 14.554688 -3.554688 15.085938 -4.835938 15.203125 -6.484375 L 17.28125 -6.484375 C 17.195312 -5.117188 16.867188 -3.914062 16.296875 -2.875 C 15.734375 -1.84375 14.890625 -1.035156 13.765625 -0.453125 C 12.648438 0.128906 11.21875 0.421875 9.46875 0.421875 Z M 9.46875 0.421875 "/></g></g></g><g fill="#32620e" fill-opacity="1"><g transform="translate(221.672623, 307.825571)"><g><path d="M 14.515625 -16.28125 L 14.515625 -14.640625 L 8.6875 -14.640625 L 8.6875 0.03125 L 6.6875 0.03125 L 6.6875 -14.640625 L 0.8125 -14.640625 L 0.8125 -16.28125 Z M 14.515625 -16.28125 "/></g></g></g><g fill="#32620e" fill-opacity="1"><g transform="translate(239.668159, 307.825571)"><g><path d="M 3.703125 -1.640625 L 13.78125 -1.640625 L 13.78125 0 L 1.671875 0 L 1.671875 -16.28125 L 13.71875 -16.28125 L 13.71875 -14.640625 L 3.703125 -14.640625 L 3.703125 -9.1875 L 12.984375 -9.1875 L 12.984375 -7.5625 L 3.703125 -7.5625 Z M 3.703125 -1.640625 "/></g></g></g><g fill="#32620e" fill-opacity="1"><g transform="translate(257.639229, 307.825571)"><g><path d="M 8.421875 -16.28125 C 10.203125 -16.28125 11.648438 -15.910156 12.765625 -15.171875 C 13.890625 -14.441406 14.710938 -13.460938 15.234375 -12.234375 C 15.753906 -11.015625 16.015625 -9.660156 16.015625 -8.171875 C 16.015625 -6.691406 15.753906 -5.332031 15.234375 -4.09375 C 14.710938 -2.851562 13.890625 -1.859375 12.765625 -1.109375 C 11.648438 -0.367188 10.203125 0 8.421875 0 L 1.671875 0 L 1.671875 -16.28125 Z M 8.0625 -1.640625 C 9.507812 -1.640625 10.65625 -1.894531 11.5 -2.40625 C 12.351562 -2.925781 12.960938 -3.675781 13.328125 -4.65625 C 13.691406 -5.632812 13.875 -6.804688 13.875 -8.171875 C 13.875 -9.566406 13.691406 -10.738281 13.328125 -11.6875 C 12.960938 -12.644531 12.351562 -13.375 11.5 -13.875 C 10.65625 -14.382812 9.507812 -14.640625 8.0625 -14.640625 L 3.703125 -14.640625 L 3.703125 -1.640625 Z M 8.0625 -1.640625 "/></g></g></g></svg>